{"title":"WWE Superstars.2011.11.10.720p.HDTV.x264.MM. Snaw90","uid":6810658,"size":827227887,"categoryP":"video","categoryS":"hd___tv_shows","magnet":"?xt=urn:btih:c382b29bb244e0644f9bb3f9f6f54aff99bd05b6&amp;dn=WWE+Superstars.2011.11.10.720p.HDTV.x264.MM.+Snaw90&amp;tr=udp%3A%2F%2Ftracker.openbittorrent.com%3A80&amp;tr=udp%3A%2F%2Fopen.demonii.com%3A1337&amp;tr=udp%3A%2F%2Ftracker.coppersurfer.tk%3A6969&amp;tr=udp%3A%2F%2Fexodus.desync.com%3A6969","seeders":0,"leechers":0,"uploader":"snaw90","files":1,"time":1321026329,"description":"\n\nGeneral\nComplete name                : WWE Superstars.2011.11.10.720p.HDTV.x264.MM. Snaw90.mp4\nFormat                           : MP4\nFile size                        : 789 MiB\nDuration                         : 35mn 18s\n\n\n\nVideo\n\nFormat                           : AVC\nBit rate                         : 2 970 Kbps\nWidth                            : 1280 pixels\nHeight                           : 720 pixels\nDisplay aspect ratio             : 16:9\nFrame rate                       : 29.970 fps\nStream size                      : 750 MiB \n\n\nAudio\n\nFormat                           : AAC\nDuration                         : 35mn 18s\nBit rate                         : 152 Kbps\nMaximum bit rate                 : 219 Kbps\nChannel(s)                       : 2 channels\nSampling rate                    : 44.1 KHz\nStream size                      : 38.3 MiB (5%)\n","torrent":{"xt":"urn:btih:c382b29bb244e0644f9bb3f9f6f54aff99bd05b6","amp;dn":"WWE+Superstars.2011.11.10.720p.HDTV.x264.MM.+Snaw90","amp;tr":["udp%3A%2F%2Ftracker.openbittorrent.com%3A80","udp%3A%2F%2Fopen.demonii.com%3A1337","udp%3A%2F%2Ftracker.coppersurfer.tk%3A6969","udp%3A%2F%2Fexodus.desync.com%3A6969"],"infoHash":"c382b29bb244e0644f9bb3f9f6f54aff99bd05b6","infoHashBuffer":{"type":"Buffer","data":[195,130,178,155,178,68,224,100,79,155,179,249,246,245,74,255,153,189,5,182]},"announce":[],"urlList":[]}}